<mxfile host="Electron" modified="2024-05-13T17:04:14.861Z" agent="Mozilla/5.0 (Macintosh; Intel Mac OS X 10_15_7) AppleWebKit/537.36 (KHTML, like Gecko) draw.io/24.2.5 Chrome/120.0.6099.109 Electron/28.1.0 Safari/537.36" etag="gqubSug5Ouc7MHIioAbm" version="24.2.5" type="device">
  <diagram name="Page-1" id="Oa8nSheZ9g68z1zZLF4W">
    <mxGraphModel dx="2006" dy="567" grid="1" gridSize="10" guides="1" tooltips="1" connect="1" arrows="1" fold="1" page="1" pageScale="1" pageWidth="827" pageHeight="1169" math="0" shadow="0">
      <root>
        <mxCell id="0" />
        <mxCell id="1" parent="0" />
        <mxCell id="OLfy5gDR7Fn79fgqq1As-1" value="&lt;div&gt;&amp;lt;&amp;lt;abstract&amp;gt;&amp;gt;&lt;br&gt;Person&lt;/div&gt;" style="rounded=0;whiteSpace=wrap;html=1;" vertex="1" parent="1">
          <mxGeometry x="340" y="100" width="120" height="60" as="geometry" />
        </mxCell>
        <mxCell id="OLfy5gDR7Fn79fgqq1As-2" value="Extends" style="endArrow=block;endSize=16;endFill=0;html=1;rounded=0;entryX=0.5;entryY=1;entryDx=0;entryDy=0;exitX=0.5;exitY=0;exitDx=0;exitDy=0;exitPerimeter=0;" edge="1" parent="1" source="OLfy5gDR7Fn79fgqq1As-3" target="OLfy5gDR7Fn79fgqq1As-1">
          <mxGeometry width="160" relative="1" as="geometry">
            <mxPoint x="310" y="230" as="sourcePoint" />
            <mxPoint x="490" y="380" as="targetPoint" />
          </mxGeometry>
        </mxCell>
        <mxCell id="OLfy5gDR7Fn79fgqq1As-3" value="Admin" style="rounded=0;whiteSpace=wrap;html=1;" vertex="1" parent="1">
          <mxGeometry x="200" y="280" width="120" height="60" as="geometry" />
        </mxCell>
        <mxCell id="OLfy5gDR7Fn79fgqq1As-4" value="User" style="rounded=0;whiteSpace=wrap;html=1;" vertex="1" parent="1">
          <mxGeometry x="340" y="390" width="120" height="60" as="geometry" />
        </mxCell>
        <mxCell id="OLfy5gDR7Fn79fgqq1As-5" value="Extends" style="endArrow=block;endSize=16;endFill=0;html=1;rounded=0;exitX=0.5;exitY=0;exitDx=0;exitDy=0;" edge="1" parent="1" source="OLfy5gDR7Fn79fgqq1As-4">
          <mxGeometry width="160" relative="1" as="geometry">
            <mxPoint x="320" y="240" as="sourcePoint" />
            <mxPoint x="400" y="160" as="targetPoint" />
          </mxGeometry>
        </mxCell>
        <mxCell id="OLfy5gDR7Fn79fgqq1As-12" value="Account" style="rounded=0;whiteSpace=wrap;html=1;" vertex="1" parent="1">
          <mxGeometry x="120" y="100" width="120" height="60" as="geometry" />
        </mxCell>
        <mxCell id="OLfy5gDR7Fn79fgqq1As-13" value="" style="endArrow=diamondThin;endFill=1;endSize=24;html=1;rounded=0;entryX=0;entryY=0.5;entryDx=0;entryDy=0;exitX=1;exitY=0.5;exitDx=0;exitDy=0;" edge="1" parent="1" source="OLfy5gDR7Fn79fgqq1As-12" target="OLfy5gDR7Fn79fgqq1As-1">
          <mxGeometry width="160" relative="1" as="geometry">
            <mxPoint x="330" y="380" as="sourcePoint" />
            <mxPoint x="490" y="380" as="targetPoint" />
          </mxGeometry>
        </mxCell>
        <mxCell id="OLfy5gDR7Fn79fgqq1As-14" value="CompanyPage" style="rounded=0;whiteSpace=wrap;html=1;" vertex="1" parent="1">
          <mxGeometry x="650" y="230" width="120" height="60" as="geometry" />
        </mxCell>
        <mxCell id="OLfy5gDR7Fn79fgqq1As-15" value="" style="endArrow=open;endFill=1;endSize=12;html=1;rounded=0;entryX=0;entryY=0.5;entryDx=0;entryDy=0;exitX=1;exitY=0.5;exitDx=0;exitDy=0;" edge="1" parent="1" source="OLfy5gDR7Fn79fgqq1As-4" target="OLfy5gDR7Fn79fgqq1As-14">
          <mxGeometry width="160" relative="1" as="geometry">
            <mxPoint x="330" y="380" as="sourcePoint" />
            <mxPoint x="490" y="380" as="targetPoint" />
          </mxGeometry>
        </mxCell>
        <mxCell id="OLfy5gDR7Fn79fgqq1As-16" value="Job" style="rounded=0;whiteSpace=wrap;html=1;" vertex="1" parent="1">
          <mxGeometry x="650" y="100" width="120" height="60" as="geometry" />
        </mxCell>
        <mxCell id="OLfy5gDR7Fn79fgqq1As-17" value="" style="endArrow=diamondThin;endFill=1;endSize=24;html=1;rounded=0;entryX=0.5;entryY=0;entryDx=0;entryDy=0;exitX=0.5;exitY=1;exitDx=0;exitDy=0;" edge="1" parent="1" source="OLfy5gDR7Fn79fgqq1As-16" target="OLfy5gDR7Fn79fgqq1As-14">
          <mxGeometry width="160" relative="1" as="geometry">
            <mxPoint x="250" y="140" as="sourcePoint" />
            <mxPoint x="350" y="140" as="targetPoint" />
          </mxGeometry>
        </mxCell>
        <mxCell id="OLfy5gDR7Fn79fgqq1As-18" value="" style="endArrow=open;endFill=1;endSize=12;html=1;rounded=0;entryX=0;entryY=0.5;entryDx=0;entryDy=0;exitX=1;exitY=0;exitDx=0;exitDy=0;" edge="1" parent="1" source="OLfy5gDR7Fn79fgqq1As-4" target="OLfy5gDR7Fn79fgqq1As-16">
          <mxGeometry width="160" relative="1" as="geometry">
            <mxPoint x="330" y="380" as="sourcePoint" />
            <mxPoint x="490" y="380" as="targetPoint" />
          </mxGeometry>
        </mxCell>
        <mxCell id="OLfy5gDR7Fn79fgqq1As-19" value="Profile" style="rounded=0;whiteSpace=wrap;html=1;" vertex="1" parent="1">
          <mxGeometry x="120" y="390" width="120" height="60" as="geometry" />
        </mxCell>
        <mxCell id="OLfy5gDR7Fn79fgqq1As-20" value="" style="endArrow=open;endFill=1;endSize=12;html=1;rounded=0;exitX=0.75;exitY=0;exitDx=0;exitDy=0;entryX=1;entryY=0;entryDx=0;entryDy=0;" edge="1" parent="1" source="OLfy5gDR7Fn79fgqq1As-4" target="OLfy5gDR7Fn79fgqq1As-4">
          <mxGeometry width="160" relative="1" as="geometry">
            <mxPoint x="380" y="380" as="sourcePoint" />
            <mxPoint x="540" y="380" as="targetPoint" />
            <Array as="points">
              <mxPoint x="430" y="350" />
              <mxPoint x="460" y="350" />
            </Array>
          </mxGeometry>
        </mxCell>
        <mxCell id="OLfy5gDR7Fn79fgqq1As-22" value="" style="endArrow=diamondThin;endFill=1;endSize=24;html=1;rounded=0;entryX=0;entryY=0.5;entryDx=0;entryDy=0;exitX=1;exitY=0.5;exitDx=0;exitDy=0;" edge="1" parent="1" source="OLfy5gDR7Fn79fgqq1As-19" target="OLfy5gDR7Fn79fgqq1As-4">
          <mxGeometry width="160" relative="1" as="geometry">
            <mxPoint x="380" y="380" as="sourcePoint" />
            <mxPoint x="540" y="380" as="targetPoint" />
          </mxGeometry>
        </mxCell>
        <mxCell id="OLfy5gDR7Fn79fgqq1As-23" value="Recommendation" style="rounded=0;whiteSpace=wrap;html=1;" vertex="1" parent="1">
          <mxGeometry x="-137" y="290" width="120" height="60" as="geometry" />
        </mxCell>
        <mxCell id="OLfy5gDR7Fn79fgqq1As-24" value="Analytics" style="rounded=0;whiteSpace=wrap;html=1;" vertex="1" parent="1">
          <mxGeometry x="-137" y="390" width="120" height="60" as="geometry" />
        </mxCell>
        <mxCell id="OLfy5gDR7Fn79fgqq1As-25" value="Skill" style="rounded=0;whiteSpace=wrap;html=1;" vertex="1" parent="1">
          <mxGeometry x="-137" y="500" width="120" height="60" as="geometry" />
        </mxCell>
        <mxCell id="OLfy5gDR7Fn79fgqq1As-26" value="Experience" style="rounded=0;whiteSpace=wrap;html=1;" vertex="1" parent="1">
          <mxGeometry x="-137" y="600" width="120" height="60" as="geometry" />
        </mxCell>
        <mxCell id="OLfy5gDR7Fn79fgqq1As-27" value="Acheivement" style="rounded=0;whiteSpace=wrap;html=1;" vertex="1" parent="1">
          <mxGeometry x="-137" y="100" width="120" height="60" as="geometry" />
        </mxCell>
        <mxCell id="OLfy5gDR7Fn79fgqq1As-28" value="Education" style="rounded=0;whiteSpace=wrap;html=1;" vertex="1" parent="1">
          <mxGeometry x="-137" y="190" width="120" height="60" as="geometry" />
        </mxCell>
        <mxCell id="OLfy5gDR7Fn79fgqq1As-29" value="" style="endArrow=diamondThin;endFill=1;endSize=24;html=1;rounded=0;entryX=0;entryY=0.5;entryDx=0;entryDy=0;" edge="1" parent="1" target="OLfy5gDR7Fn79fgqq1As-19">
          <mxGeometry width="160" relative="1" as="geometry">
            <mxPoint x="30" y="420" as="sourcePoint" />
            <mxPoint x="210" y="560" as="targetPoint" />
          </mxGeometry>
        </mxCell>
        <mxCell id="OLfy5gDR7Fn79fgqq1As-31" value="" style="endArrow=none;html=1;rounded=0;" edge="1" parent="1">
          <mxGeometry width="50" height="50" relative="1" as="geometry">
            <mxPoint x="30" y="630" as="sourcePoint" />
            <mxPoint x="30" y="130" as="targetPoint" />
          </mxGeometry>
        </mxCell>
        <mxCell id="OLfy5gDR7Fn79fgqq1As-32" value="" style="endArrow=none;html=1;rounded=0;entryX=1;entryY=0.5;entryDx=0;entryDy=0;" edge="1" parent="1" target="OLfy5gDR7Fn79fgqq1As-27">
          <mxGeometry width="50" height="50" relative="1" as="geometry">
            <mxPoint x="30" y="130" as="sourcePoint" />
            <mxPoint x="30" y="140" as="targetPoint" />
          </mxGeometry>
        </mxCell>
        <mxCell id="OLfy5gDR7Fn79fgqq1As-33" value="" style="endArrow=none;html=1;rounded=0;entryX=1;entryY=0.5;entryDx=0;entryDy=0;" edge="1" parent="1">
          <mxGeometry width="50" height="50" relative="1" as="geometry">
            <mxPoint x="30" y="219.5" as="sourcePoint" />
            <mxPoint x="-17" y="219.5" as="targetPoint" />
          </mxGeometry>
        </mxCell>
        <mxCell id="OLfy5gDR7Fn79fgqq1As-34" value="" style="endArrow=none;html=1;rounded=0;entryX=1;entryY=0.5;entryDx=0;entryDy=0;" edge="1" parent="1">
          <mxGeometry width="50" height="50" relative="1" as="geometry">
            <mxPoint x="30" y="319.5" as="sourcePoint" />
            <mxPoint x="-17" y="319.5" as="targetPoint" />
          </mxGeometry>
        </mxCell>
        <mxCell id="OLfy5gDR7Fn79fgqq1As-35" value="" style="endArrow=none;html=1;rounded=0;entryX=1;entryY=0.5;entryDx=0;entryDy=0;" edge="1" parent="1">
          <mxGeometry width="50" height="50" relative="1" as="geometry">
            <mxPoint x="30" y="419.5" as="sourcePoint" />
            <mxPoint x="-17" y="419.5" as="targetPoint" />
          </mxGeometry>
        </mxCell>
        <mxCell id="OLfy5gDR7Fn79fgqq1As-36" value="" style="endArrow=none;html=1;rounded=0;entryX=1;entryY=0.5;entryDx=0;entryDy=0;" edge="1" parent="1">
          <mxGeometry width="50" height="50" relative="1" as="geometry">
            <mxPoint x="30" y="529.5" as="sourcePoint" />
            <mxPoint x="-17" y="529.5" as="targetPoint" />
          </mxGeometry>
        </mxCell>
        <mxCell id="OLfy5gDR7Fn79fgqq1As-37" value="" style="endArrow=none;html=1;rounded=0;entryX=1;entryY=0.5;entryDx=0;entryDy=0;" edge="1" parent="1">
          <mxGeometry width="50" height="50" relative="1" as="geometry">
            <mxPoint x="30" y="629.5" as="sourcePoint" />
            <mxPoint x="-17" y="629.5" as="targetPoint" />
          </mxGeometry>
        </mxCell>
        <mxCell id="OLfy5gDR7Fn79fgqq1As-39" value="&amp;lt;&amp;lt;interface&amp;gt;&amp;gt;&lt;br&gt;Search" style="rounded=0;whiteSpace=wrap;html=1;" vertex="1" parent="1">
          <mxGeometry x="650" y="390" width="120" height="60" as="geometry" />
        </mxCell>
        <mxCell id="OLfy5gDR7Fn79fgqq1As-40" value="SearchCatalog" style="rounded=0;whiteSpace=wrap;html=1;" vertex="1" parent="1">
          <mxGeometry x="650" y="510" width="120" height="60" as="geometry" />
        </mxCell>
        <mxCell id="OLfy5gDR7Fn79fgqq1As-41" value="" style="endArrow=block;dashed=1;endFill=0;endSize=12;html=1;rounded=0;entryX=0.5;entryY=1;entryDx=0;entryDy=0;exitX=0.5;exitY=0;exitDx=0;exitDy=0;" edge="1" parent="1" source="OLfy5gDR7Fn79fgqq1As-40" target="OLfy5gDR7Fn79fgqq1As-39">
          <mxGeometry width="160" relative="1" as="geometry">
            <mxPoint x="380" y="440" as="sourcePoint" />
            <mxPoint x="540" y="440" as="targetPoint" />
          </mxGeometry>
        </mxCell>
        <mxCell id="OLfy5gDR7Fn79fgqq1As-42" value="" style="endArrow=open;endFill=1;endSize=12;html=1;rounded=0;entryX=0;entryY=0.5;entryDx=0;entryDy=0;exitX=1;exitY=0.5;exitDx=0;exitDy=0;" edge="1" parent="1" source="OLfy5gDR7Fn79fgqq1As-4" target="OLfy5gDR7Fn79fgqq1As-39">
          <mxGeometry width="160" relative="1" as="geometry">
            <mxPoint x="470" y="430" as="sourcePoint" />
            <mxPoint x="660" y="270" as="targetPoint" />
          </mxGeometry>
        </mxCell>
        <mxCell id="OLfy5gDR7Fn79fgqq1As-43" value="Post" style="rounded=0;whiteSpace=wrap;html=1;" vertex="1" parent="1">
          <mxGeometry x="160" y="600" width="120" height="60" as="geometry" />
        </mxCell>
        <mxCell id="OLfy5gDR7Fn79fgqq1As-44" value="Group" style="rounded=0;whiteSpace=wrap;html=1;" vertex="1" parent="1">
          <mxGeometry x="160" y="510" width="120" height="60" as="geometry" />
        </mxCell>
        <mxCell id="OLfy5gDR7Fn79fgqq1As-45" value="ConnectionInvitation" style="rounded=0;whiteSpace=wrap;html=1;" vertex="1" parent="1">
          <mxGeometry x="160" y="870" width="120" height="60" as="geometry" />
        </mxCell>
        <mxCell id="OLfy5gDR7Fn79fgqq1As-46" value="Message" style="rounded=0;whiteSpace=wrap;html=1;" vertex="1" parent="1">
          <mxGeometry x="160" y="780" width="120" height="60" as="geometry" />
        </mxCell>
        <mxCell id="OLfy5gDR7Fn79fgqq1As-47" value="Comment" style="rounded=0;whiteSpace=wrap;html=1;" vertex="1" parent="1">
          <mxGeometry x="160" y="690" width="120" height="60" as="geometry" />
        </mxCell>
        <mxCell id="OLfy5gDR7Fn79fgqq1As-48" value="" style="endArrow=none;html=1;rounded=0;entryX=0.5;entryY=1;entryDx=0;entryDy=0;" edge="1" parent="1" target="OLfy5gDR7Fn79fgqq1As-4">
          <mxGeometry width="50" height="50" relative="1" as="geometry">
            <mxPoint x="400" y="900" as="sourcePoint" />
            <mxPoint x="490" y="680" as="targetPoint" />
          </mxGeometry>
        </mxCell>
        <mxCell id="OLfy5gDR7Fn79fgqq1As-49" value="" style="endArrow=open;endFill=1;endSize=12;html=1;rounded=0;entryX=1;entryY=0.5;entryDx=0;entryDy=0;" edge="1" parent="1" target="OLfy5gDR7Fn79fgqq1As-47">
          <mxGeometry width="160" relative="1" as="geometry">
            <mxPoint x="400" y="720" as="sourcePoint" />
            <mxPoint x="660" y="430" as="targetPoint" />
          </mxGeometry>
        </mxCell>
        <mxCell id="OLfy5gDR7Fn79fgqq1As-50" value="" style="endArrow=open;endFill=1;endSize=12;html=1;rounded=0;entryX=1;entryY=0.5;entryDx=0;entryDy=0;" edge="1" parent="1">
          <mxGeometry width="160" relative="1" as="geometry">
            <mxPoint x="400" y="809.5" as="sourcePoint" />
            <mxPoint x="280" y="809.5" as="targetPoint" />
          </mxGeometry>
        </mxCell>
        <mxCell id="OLfy5gDR7Fn79fgqq1As-51" value="" style="endArrow=open;endFill=1;endSize=12;html=1;rounded=0;entryX=1;entryY=0.5;entryDx=0;entryDy=0;" edge="1" parent="1">
          <mxGeometry width="160" relative="1" as="geometry">
            <mxPoint x="400" y="899.5" as="sourcePoint" />
            <mxPoint x="280" y="899.5" as="targetPoint" />
          </mxGeometry>
        </mxCell>
        <mxCell id="OLfy5gDR7Fn79fgqq1As-52" value="" style="endArrow=open;endFill=1;endSize=12;html=1;rounded=0;entryX=1;entryY=0.5;entryDx=0;entryDy=0;" edge="1" parent="1">
          <mxGeometry width="160" relative="1" as="geometry">
            <mxPoint x="400" y="629.5" as="sourcePoint" />
            <mxPoint x="280" y="629.5" as="targetPoint" />
          </mxGeometry>
        </mxCell>
        <mxCell id="OLfy5gDR7Fn79fgqq1As-53" value="" style="endArrow=open;endFill=1;endSize=12;html=1;rounded=0;entryX=1;entryY=0.5;entryDx=0;entryDy=0;" edge="1" parent="1">
          <mxGeometry width="160" relative="1" as="geometry">
            <mxPoint x="400" y="539.5" as="sourcePoint" />
            <mxPoint x="280" y="539.5" as="targetPoint" />
          </mxGeometry>
        </mxCell>
        <mxCell id="OLfy5gDR7Fn79fgqq1As-54" value="Notification" style="rounded=0;whiteSpace=wrap;html=1;" vertex="1" parent="1">
          <mxGeometry x="-137" y="690" width="120" height="60" as="geometry" />
        </mxCell>
        <mxCell id="OLfy5gDR7Fn79fgqq1As-55" value="" style="endArrow=none;html=1;rounded=0;" edge="1" parent="1">
          <mxGeometry width="50" height="50" relative="1" as="geometry">
            <mxPoint x="110" y="900" as="sourcePoint" />
            <mxPoint x="110" y="540" as="targetPoint" />
          </mxGeometry>
        </mxCell>
        <mxCell id="OLfy5gDR7Fn79fgqq1As-56" value="" style="endArrow=none;html=1;rounded=0;entryX=0;entryY=0.5;entryDx=0;entryDy=0;" edge="1" parent="1" target="OLfy5gDR7Fn79fgqq1As-44">
          <mxGeometry width="50" height="50" relative="1" as="geometry">
            <mxPoint x="110" y="540" as="sourcePoint" />
            <mxPoint x="490" y="680" as="targetPoint" />
          </mxGeometry>
        </mxCell>
        <mxCell id="OLfy5gDR7Fn79fgqq1As-57" value="" style="endArrow=none;html=1;rounded=0;entryX=0;entryY=0.5;entryDx=0;entryDy=0;" edge="1" parent="1">
          <mxGeometry width="50" height="50" relative="1" as="geometry">
            <mxPoint x="110" y="629.5" as="sourcePoint" />
            <mxPoint x="160" y="629.5" as="targetPoint" />
          </mxGeometry>
        </mxCell>
        <mxCell id="OLfy5gDR7Fn79fgqq1As-58" value="" style="endArrow=none;html=1;rounded=0;entryX=0;entryY=0.5;entryDx=0;entryDy=0;" edge="1" parent="1">
          <mxGeometry width="50" height="50" relative="1" as="geometry">
            <mxPoint x="110" y="719.5" as="sourcePoint" />
            <mxPoint x="160" y="719.5" as="targetPoint" />
          </mxGeometry>
        </mxCell>
        <mxCell id="OLfy5gDR7Fn79fgqq1As-59" value="" style="endArrow=none;html=1;rounded=0;entryX=0;entryY=0.5;entryDx=0;entryDy=0;" edge="1" parent="1">
          <mxGeometry width="50" height="50" relative="1" as="geometry">
            <mxPoint x="110" y="809.5" as="sourcePoint" />
            <mxPoint x="160" y="809.5" as="targetPoint" />
          </mxGeometry>
        </mxCell>
        <mxCell id="OLfy5gDR7Fn79fgqq1As-60" value="" style="endArrow=none;html=1;rounded=0;entryX=0;entryY=0.5;entryDx=0;entryDy=0;" edge="1" parent="1">
          <mxGeometry width="50" height="50" relative="1" as="geometry">
            <mxPoint x="110" y="899.5" as="sourcePoint" />
            <mxPoint x="160" y="899.5" as="targetPoint" />
          </mxGeometry>
        </mxCell>
        <mxCell id="OLfy5gDR7Fn79fgqq1As-61" value="" style="endArrow=open;endFill=1;endSize=12;html=1;rounded=0;entryX=1;entryY=0.5;entryDx=0;entryDy=0;" edge="1" parent="1" target="OLfy5gDR7Fn79fgqq1As-54">
          <mxGeometry width="160" relative="1" as="geometry">
            <mxPoint x="110" y="720" as="sourcePoint" />
            <mxPoint x="290" y="730" as="targetPoint" />
          </mxGeometry>
        </mxCell>
      </root>
    </mxGraphModel>
  </diagram>
</mxfile>
